<svg version="1.1" id="Layer_1" xmlns="http://www.w3.org/2000/svg" xmlns:xlink="http://www.w3.org/1999/xlink" x="0px" y="0px"
	 width="100%" viewBox="0 0 1600 896" enable-background="new 0 0 1600 896" xml:space="preserve">
<path fill="#030422" opacity="1.000000" stroke="none" 
	d="
M1515.000000,897.000000 
	C1010.000000,897.000000 505.500000,897.000000 1.000000,897.000000 
	C1.000000,598.333313 1.000000,299.666656 1.000000,1.000000 
	C534.333313,1.000000 1067.666626,1.000000 1601.000000,1.000000 
	C1601.000000,299.666656 1601.000000,598.333313 1601.000000,897.000000 
	C1572.500000,897.000000 1544.000000,897.000000 1515.000000,897.000000 
M437.004974,388.005157 
	C437.004974,388.005157 436.994812,387.965729 436.375427,388.208252 
	C434.234619,390.471680 432.093811,392.735138 429.367706,395.296509 
	C429.264679,395.489716 429.161682,395.682892 428.482025,395.979492 
	C414.100647,410.389618 399.712067,424.792572 385.342224,439.214172 
	C380.915527,443.656860 377.855530,448.534882 380.747772,455.632843 
	C380.843048,455.776672 380.938354,455.920471 381.115753,456.716400 
	C382.382965,458.159332 383.650146,459.602264 385.137848,461.684967 
	C392.360657,469.177277 399.583435,476.669586 407.076324,484.777924 
	C414.796478,492.906372 422.454681,501.094910 430.261078,509.139709 
	C434.619629,513.631409 439.224396,517.884155 443.923279,522.883484 
	C446.957581,525.362183 449.837067,529.704285 453.055115,529.971619 
	C462.885712,530.788391 472.933838,530.781189 482.725769,529.632385 
	C489.154785,528.878113 490.587708,521.986450 486.175934,516.957642 
	C484.215973,514.723450 482.029602,512.686523 479.927795,510.578278 
	C474.683044,505.317413 469.427917,500.066925 463.949799,494.181702 
	C462.747131,492.823975 461.577332,491.435394 460.336578,490.113403 
	C449.609070,478.683350 438.868774,467.265228 428.054810,455.091644 
	C427.997803,454.085785 427.940796,453.079926 428.047638,451.341736 
	C429.997437,448.193604 431.553711,444.696533 433.974487,441.965942 
	C440.069611,435.090698 446.554688,428.561157 453.531830,421.700256 
	C463.931915,411.175385 474.344727,400.662994 484.723328,390.117004 
	C487.343781,387.454315 489.877502,384.670593 487.860229,380.487549 
	C485.794708,376.204498 482.510193,373.916382 477.587830,373.981812 
	C470.259430,374.079285 462.922974,374.154663 455.600861,373.910858 
	C451.337250,373.768921 448.166016,375.157776 445.350311,379.126373 
	C443.187561,381.406158 441.024811,383.685944 438.394897,386.048370 
	C437.918243,386.698059 437.441620,387.347748 437.004974,388.005157 
M337.302948,520.649292 
	C339.178253,521.466309 341.053589,522.283386 343.375519,523.586670 
	C343.782501,523.747070 344.189484,523.907471 344.558350,524.172180 
	C344.558350,524.172180 344.505768,524.130188 345.232666,524.569946 
	C350.174530,526.037598 355.116394,527.505310 360.256714,529.218689 
	C360.256714,529.218689 360.717590,529.304810 360.717590,529.304810 
	C360.717590,529.304810 361.128448,529.106567 361.706238,529.300537 
	C362.311768,529.339905 362.917267,529.379272 364.034851,529.854431 
	C365.696289,529.919006 367.357697,529.983582 369.836639,530.177917 
	C371.213837,530.152710 372.591003,530.127502 374.681427,530.501648 
	C388.502136,530.551086 402.322876,530.619934 416.143585,530.618408 
	C417.452057,530.618286 418.823486,530.351379 420.057007,529.906860 
	C423.686432,528.598755 425.550293,523.683289 422.963409,520.903198 
	C417.214233,514.724731 410.993347,508.985291 404.711975,502.633331 
	C404.444611,502.436584 404.177277,502.239838 403.838257,501.403320 
	C402.877747,500.643555 401.917206,499.883759 400.599274,498.458588 
	C400.427094,498.274872 400.254913,498.091187 400.279694,497.859528 
	C400.279694,497.859528 400.085480,497.912323 399.605072,497.424072 
	C399.208466,497.203156 398.811829,496.982269 398.231995,496.209869 
	C397.788788,495.883240 397.345612,495.556580 396.458954,494.666229 
	C392.884827,493.939178 389.316040,492.652100 385.735352,492.618225 
	C380.558380,492.569244 375.372833,493.428040 369.803375,493.285461 
	C355.147980,489.750488 344.227753,481.456299 337.343170,467.273651 
	C337.167511,466.897766 336.991821,466.521881 336.773621,465.346405 
	C334.400543,458.023682 333.869446,450.615173 335.495026,443.042786 
	C335.738464,441.908752 335.182007,440.602966 335.629456,439.084808 
	C339.390503,433.294739 342.440094,426.847443 347.057831,421.848816 
	C357.280518,410.783051 370.842285,408.733521 385.148773,410.095154 
	C389.928986,410.550140 394.343201,410.066101 397.972870,406.638641 
	C405.318939,399.701935 412.612122,392.709198 419.928314,385.740845 
	C422.262604,383.517548 425.218597,380.834106 422.919342,377.744446 
	C421.377533,375.672577 417.791473,374.163849 415.072449,374.086853 
	C400.932770,373.686493 386.776611,373.686188 372.628387,373.807556 
	C341.893982,374.071136 311.699432,396.539581 301.793182,426.547150 
	C297.280762,438.625519 296.137054,451.113892 298.125153,463.755432 
	C302.039825,488.647095 314.552307,507.790588 336.941345,520.053406 
	C336.941345,520.053406 336.955933,520.074036 337.302948,520.649292 
M727.362427,498.930817 
	C727.362427,469.681976 727.362427,440.433136 727.362427,411.072510 
	C722.417969,411.072510 717.851929,411.072510 712.842651,411.072510 
	C712.842651,422.227997 712.842651,433.109131 712.842651,444.258362 
	C696.893616,434.208527 683.347778,434.712708 672.067505,445.478271 
	C661.002625,456.038269 658.757019,473.202637 666.807983,486.720520 
	C671.568481,494.713684 678.604980,499.716492 687.756592,501.466888 
	C696.995117,503.233887 705.251953,500.522034 712.825745,494.483368 
	C712.981995,497.043304 713.081909,498.679535 713.235413,501.194427 
	C718.035706,500.725189 722.645691,500.274536 727.362427,498.930817 
M516.033691,491.454773 
	C537.662598,508.351868 567.527588,504.204407 581.187134,482.229462 
	C577.300537,479.520508 573.406738,476.806488 569.584778,474.142578 
	C553.069397,489.885468 537.297974,491.279633 524.336853,478.406952 
	C512.362793,466.514557 512.367615,447.857483 524.348022,435.320801 
	C536.127502,422.994446 552.234070,424.688690 568.942993,440.113220 
	C573.037781,437.497528 577.162720,434.862518 581.421509,432.142059 
	C577.164612,425.247437 571.574890,420.398651 564.729675,417.046509 
	C544.489624,407.134796 520.561096,413.328156 507.982056,431.633270 
	C495.118927,450.351929 498.269531,475.246979 516.033691,491.454773 
M1309.415283,460.024841 
	C1306.666870,448.906128 1299.711426,441.484161 1288.883667,438.261261 
	C1273.009399,433.536224 1256.776123,441.693909 1250.475708,457.009186 
	C1244.316162,471.981537 1250.334595,490.029541 1264.085083,497.821136 
	C1278.519653,506.000397 1297.176880,502.208893 1307.041748,488.902100 
	C1303.745239,486.519287 1300.453979,484.140289 1297.045654,481.676605 
	C1289.622314,489.394318 1281.161011,491.804108 1271.581177,487.086151 
	C1266.076050,484.374878 1262.871704,479.782227 1262.942139,472.711853 
	C1279.039307,472.711853 1294.753296,472.711853 1311.024780,472.711853 
	C1310.531860,468.345245 1310.106323,464.574280 1309.415283,460.024841 
M790.955688,495.426575 
	C793.098083,493.429871 795.240479,491.433136 797.638000,489.198578 
	C793.944946,486.500763 790.780579,484.189178 787.558533,481.835419 
	C780.271118,489.110413 772.004395,491.685760 762.439392,487.442383 
	C756.470276,484.794189 753.288635,480.042450 753.007996,472.817657 
	C768.958862,472.817657 784.671326,472.817657 800.310913,472.817657 
	C802.269836,454.629578 791.229919,439.717651 774.454834,437.253021 
	C757.843933,434.812531 742.134399,446.150299 738.890747,462.920135 
	C736.295898,476.335876 741.567017,489.470306 752.375122,496.520203 
	C764.079895,504.154968 778.442932,503.902710 790.955688,495.426575 
M976.964722,460.500000 
	C976.964722,473.895905 976.964722,487.291779 976.964722,500.628754 
	C982.335632,500.628754 986.927734,500.628754 991.991455,500.628754 
	C991.991455,488.788452 991.991455,477.219086 991.991455,465.051575 
	C1003.500366,465.051575 1014.538879,465.051575 1025.643677,465.051575 
	C1025.643677,460.021301 1025.643677,455.605743 1025.643677,450.550995 
	C1014.326477,450.550995 1003.294128,450.550995 992.173584,450.550995 
	C992.173584,443.136505 992.173584,436.366028 992.173584,429.163818 
	C1004.465698,429.163818 1016.556702,429.163818 1028.662964,429.163818 
	C1028.662964,424.299988 1028.662964,419.872070 1028.662964,415.296875 
	C1011.355774,415.296875 994.324341,415.296875 976.965088,415.296875 
	C976.965088,430.250214 976.965088,444.875092 976.964722,460.500000 
M635.792664,499.366364 
	C637.103333,498.645752 638.454407,497.989380 639.718506,497.194641 
	C652.273865,489.300964 657.982666,474.559692 654.023071,460.325439 
	C650.080750,446.153259 637.911926,437.009949 622.902405,436.942322 
	C608.081238,436.875549 595.423401,445.954681 591.539246,460.033783 
	C588.076111,472.586273 590.774597,483.979675 600.328552,492.995819 
	C610.334167,502.438232 622.224426,504.180817 635.792664,499.366364 
M809.501465,467.188171 
	C814.430908,486.944122 828.950623,499.866608 848.062195,501.507202 
	C872.458496,503.601471 894.266602,484.542175 895.144043,460.359924 
	C896.076904,434.648010 876.424500,413.813873 851.449890,414.038147 
	C824.856506,414.277008 805.334473,438.507050 809.501465,467.188171 
M1158.128662,480.646057 
	C1158.128662,466.865753 1158.128662,453.085480 1158.128662,439.316650 
	C1152.409790,439.316650 1147.878784,439.316650 1143.234741,439.316650 
	C1143.234741,453.040222 1142.994019,466.355713 1143.299561,479.658661 
	C1143.634399,494.237122 1153.914795,503.843140 1167.432739,501.672577 
	C1172.630737,500.837952 1177.421143,497.464996 1182.306396,495.289124 
	C1182.407227,496.285248 1182.617554,498.362762 1182.848633,500.645691 
	C1187.353271,500.645691 1191.603516,500.645691 1196.138184,500.645691 
	C1196.138184,480.062103 1196.138184,459.663361 1196.138184,439.196167 
	C1191.466309,439.196167 1186.931519,439.196167 1182.129883,439.196167 
	C1182.129883,441.383575 1182.131592,443.206329 1182.129639,445.029053 
	C1182.118896,455.187866 1182.250366,465.349518 1182.046265,475.504456 
	C1181.906128,482.470520 1177.855347,487.596710 1172.118896,488.827850 
	C1166.456421,490.043060 1161.393677,487.304993 1158.128662,480.646057 
M1088.017944,475.500000 
	C1088.017944,463.405762 1088.017944,451.311523 1088.017944,439.065918 
	C1083.080811,439.065918 1078.661377,439.065918 1073.853882,439.065918 
	C1073.853882,450.884491 1073.891357,462.490936 1073.839722,474.097015 
	C1073.809204,480.947021 1070.803955,486.103577 1065.967285,487.922455 
	C1056.946045,491.315063 1049.371826,485.964417 1049.198608,475.734711 
	C1048.993164,463.597015 1049.150513,451.453217 1049.150513,439.160217 
	C1044.324341,439.160217 1039.772339,439.160217 1035.099609,439.160217 
	C1035.099609,453.146759 1034.874634,466.798126 1035.179810,480.437622 
	C1035.379272,489.350800 1038.993774,496.789612 1047.708008,500.329071 
	C1056.057495,503.720398 1063.992676,502.497955 1070.943115,496.418060 
	C1071.714966,495.743042 1072.640991,495.244507 1073.763916,494.481689 
	C1073.921021,496.811798 1074.041138,498.594116 1074.177856,500.623962 
	C1078.745972,500.623962 1083.142578,500.623962 1088.018066,500.623962 
	C1088.018066,492.402924 1088.018066,484.451477 1088.017944,475.500000 
M1113.794189,420.406433 
	C1112.699097,420.793274 1111.612183,421.484039 1110.507324,421.514343 
	C1105.706543,421.646118 1104.974731,424.475220 1105.301636,428.492767 
	C1105.568604,431.774963 1105.355957,435.096161 1105.355957,438.603882 
	C1102.032471,438.805786 1099.153320,438.980713 1096.355469,439.150696 
	C1096.355469,443.658447 1096.355469,447.743896 1096.355469,451.985077 
	C1099.382446,452.139679 1102.123291,452.279694 1105.113892,452.432434 
	C1105.113892,455.472473 1105.070801,458.123657 1105.121826,460.773041 
	C1105.288452,469.417053 1105.066772,478.096375 1105.797852,486.693817 
	C1106.511597,495.088776 1112.419556,500.823883 1120.632324,501.706696 
	C1125.159302,502.193329 1129.781616,501.793823 1134.434082,501.793823 
	C1134.434082,496.324707 1134.434082,492.110870 1134.434082,488.221771 
	C1131.628784,488.221771 1129.148682,488.327240 1126.681152,488.196320 
	C1123.240112,488.013794 1120.041626,486.704163 1119.930664,482.908173 
	C1119.636719,472.835388 1119.830933,462.748383 1119.830933,452.218872 
	C1124.681519,452.218872 1129.267334,452.218872 1134.102783,452.218872 
	C1134.102783,447.563873 1134.102783,443.363068 1134.102783,438.728302 
	C1129.198975,438.728302 1124.603271,438.728302 1119.424927,438.728302 
	C1119.424927,431.948273 1119.424927,425.577545 1119.424927,418.744781 
	C1117.356934,419.355682 1115.963867,419.767181 1113.794189,420.406433 
M909.661438,497.070953 
	C909.789673,504.326843 914.588562,499.597168 917.857849,500.851562 
	C917.857849,498.278168 917.853210,496.481415 917.858582,494.684631 
	C917.888062,484.853790 917.418884,474.984192 918.174011,465.209290 
	C918.523071,460.690796 920.525208,455.858429 923.092957,452.056549 
	C926.913635,446.399597 934.757996,444.772949 941.581970,447.056610 
	C948.284485,449.299622 951.288818,454.397461 951.664856,461.090240 
	C951.963623,466.406372 951.772339,471.750580 951.779236,477.082336 
	C951.789185,484.864136 951.781799,492.645935 951.781799,500.561737 
	C954.791870,500.561737 957.219788,500.561737 959.902222,500.561737 
	C959.902222,485.787445 960.405579,471.296875 959.708984,456.864227 
	C959.306152,448.519073 954.234314,442.163666 946.234131,439.128510 
	C937.906372,435.969086 929.883484,436.773499 922.779053,442.724579 
	C921.639771,443.678925 920.306213,444.401306 918.619080,445.526672 
	C918.109314,442.749634 917.765747,440.877930 917.430237,439.050110 
	C914.809387,439.050110 912.519409,439.050110 909.662842,439.050110 
	C909.662842,458.237640 909.662842,477.197845 909.661438,497.070953 
M1210.813965,476.499084 
	C1210.813965,484.461121 1210.813965,492.423126 1210.813965,500.449341 
	C1215.806152,500.449341 1220.348755,500.449341 1225.072388,500.449341 
	C1225.072388,489.923492 1224.939697,479.778015 1225.109497,469.637604 
	C1225.280640,459.416229 1231.013550,453.641937 1241.140869,453.056946 
	C1242.118042,453.000549 1243.092529,452.898865 1244.440063,452.787445 
	C1244.440063,447.581482 1244.440063,442.521301 1244.440063,437.329163 
	C1236.171265,436.624847 1230.410522,440.676819 1224.919189,447.217194 
	C1224.919189,443.845825 1224.919189,441.600830 1224.919189,439.216248 
	C1220.032471,439.216248 1215.491333,439.216248 1210.813965,439.216248 
	C1210.813965,451.540161 1210.813965,463.519623 1210.813965,476.499084 
z"/>
<path fill="#4AC8E2" opacity="1.000000" stroke="none" 
	d="
M302.273346,425.979645 
	C311.699432,396.539581 341.893982,374.071136 372.628387,373.807556 
	C386.776611,373.686188 400.932770,373.686493 415.072449,374.086853 
	C417.791473,374.163849 421.377533,375.672577 422.919342,377.744446 
	C425.218597,380.834106 422.262604,383.517548 419.928314,385.740845 
	C412.612122,392.709198 405.318939,399.701935 397.972870,406.638641 
	C394.343201,410.066101 389.928986,410.550140 385.148773,410.095154 
	C370.842285,408.733521 357.280518,410.783051 347.057831,421.848816 
	C342.440094,426.847443 339.390503,433.294739 335.126068,439.046021 
	C331.565063,436.404083 329.414215,437.258972 326.751801,440.123596 
	C322.165436,445.058258 316.980316,449.436432 312.021179,454.022156 
	C311.995880,453.996246 311.945221,453.945953 311.933716,453.585693 
	C310.503174,451.258392 309.180481,449.211731 307.638733,447.346039 
	C306.005707,445.369781 305.748108,443.802979 307.742767,441.761871 
	C311.378143,438.041870 310.883972,436.440796 306.514435,433.218903 
	C305.303986,432.326385 304.763000,430.248535 304.382904,428.606201 
	C304.135437,427.536804 304.733368,426.271790 305.003815,424.818848 
	C303.755341,425.349609 303.014343,425.664642 302.273346,425.979645 
M334.618896,436.520081 
	C334.618896,436.520081 334.488434,436.607605 334.618896,436.520081 
z"/>
<path fill="#F4F5F8" opacity="1.000000" stroke="none" 
	d="
M727.309082,499.377380 
	C722.645691,500.274536 718.035706,500.725189 713.235413,501.194427 
	C713.081909,498.679535 712.981995,497.043304 712.825745,494.483368 
	C705.251953,500.522034 696.995117,503.233887 687.756592,501.466888 
	C678.604980,499.716492 671.568481,494.713684 666.807983,486.720520 
	C658.757019,473.202637 661.002625,456.038269 672.067505,445.478271 
	C683.347778,434.712708 696.893616,434.208527 712.842651,444.258362 
	C712.842651,433.109131 712.842651,422.227997 712.842651,411.072510 
	C717.851929,411.072510 722.417969,411.072510 727.362427,411.072510 
	C727.362427,440.433136 727.362427,469.681976 727.309082,499.377380 
M676.793335,472.627625 
	C678.908203,481.848694 685.271362,487.736938 693.680420,488.254272 
	C701.846130,488.756622 709.176208,484.055511 712.047241,476.474609 
	C714.800171,469.205383 712.826233,460.755280 707.134888,455.446198 
	C702.000732,450.656830 693.380859,449.209229 687.162109,452.091888 
	C679.888733,455.463470 676.058899,462.689819 676.793335,472.627625 
z"/>
<path fill="#F4F5F8" opacity="1.000000" stroke="none" 
	d="
M515.764038,491.223938 
	C498.269531,475.246979 495.118927,450.351929 507.982056,431.633270 
	C520.561096,413.328156 544.489624,407.134796 564.729675,417.046509 
	C571.574890,420.398651 577.164612,425.247437 581.421509,432.142059 
	C577.162720,434.862518 573.037781,437.497528 568.942993,440.113220 
	C552.234070,424.688690 536.127502,422.994446 524.348022,435.320801 
	C512.367615,447.857483 512.362793,466.514557 524.336853,478.406952 
	C537.297974,491.279633 553.069397,489.885468 569.584778,474.142578 
	C573.406738,476.806488 577.300537,479.520508 581.187134,482.229462 
	C567.527588,504.204407 537.662598,508.351868 515.764038,491.223938 
z"/>
<path fill="#4085D6" opacity="1.000000" stroke="none" 
	d="
M312.046448,454.048096 
	C316.980316,449.436432 322.165436,445.058258 326.751801,440.123596 
	C329.414215,437.258972 331.565063,436.404083 334.809113,439.191956 
	C335.182007,440.602966 335.738464,441.908752 335.495026,443.042786 
	C333.869446,450.615173 334.400543,458.023682 336.616241,465.938721 
	C336.787720,466.983978 337.116577,467.436890 337.445435,467.889801 
	C344.227753,481.456299 355.147980,489.750488 369.652832,493.747650 
	C366.311066,494.590973 362.921112,494.422455 359.976837,495.486694 
	C355.923737,496.951782 352.304718,499.573578 348.324493,501.294464 
	C342.231049,503.929016 337.062042,507.388794 335.184448,513.503967 
	C335.811707,515.886230 336.361633,517.974915 336.911591,520.063538 
	C314.552307,507.790588 302.039825,488.647095 298.125153,463.755432 
	C296.137054,451.113892 297.280762,438.625519 302.033264,426.263397 
	C303.014343,425.664642 303.755341,425.349609 305.003815,424.818848 
	C304.733368,426.271790 304.135437,427.536804 304.382904,428.606201 
	C304.763000,430.248535 305.303986,432.326385 306.514435,433.218903 
	C310.883972,436.440796 311.378143,438.041870 307.742767,441.761871 
	C305.748108,443.802979 306.005707,445.369781 307.638733,447.346039 
	C309.180481,449.211731 310.503174,451.258392 311.620422,453.636932 
	C310.863068,454.682678 310.407501,455.316956 309.637207,455.987976 
	C308.674103,456.643005 308.025696,457.261230 307.377289,457.879456 
	C307.668732,458.132843 307.960175,458.386200 308.251617,458.639587 
	C308.848267,457.772949 309.444916,456.906311 310.349426,455.980255 
	C311.120300,455.296570 311.583374,454.672333 312.046448,454.048096 
M330.677765,473.982635 
	C331.465271,473.331085 332.252777,472.679535 333.301422,471.894806 
	C333.186951,471.911713 333.072510,471.928619 332.321564,472.009277 
	C331.539490,472.667877 330.757416,473.326508 329.587372,474.236572 
	C329.600006,474.576996 329.612640,474.917389 329.625305,475.257812 
	C329.764038,474.852173 329.902740,474.446533 330.677765,473.982635 
M305.727417,460.171692 
	C305.621490,460.025421 305.515533,459.879181 305.409576,459.732910 
	C305.429596,459.935516 305.449585,460.138153 305.727417,460.171692 
M302.840973,462.698120 
	C302.921082,462.558289 303.001190,462.418488 303.081268,462.278656 
	C302.951324,462.338928 302.821381,462.399170 302.840973,462.698120 
M335.174530,469.763702 
	C335.119568,469.590454 335.064606,469.417236 335.009644,469.243988 
	C334.952820,469.420898 334.895996,469.597809 335.174530,469.763702 
M325.149475,479.702820 
	C325.055756,479.704163 324.962067,479.705536 325.149475,479.702820 
M326.824219,477.732239 
	C326.974884,477.619629 327.125549,477.507019 327.276215,477.394379 
	C327.069885,477.417969 326.863525,477.441559 326.824219,477.732239 
z"/>
<path fill="#F4F5F8" opacity="1.000000" stroke="none" 
	d="
M1309.547974,460.414062 
	C1310.106323,464.574280 1310.531860,468.345245 1311.024780,472.711853 
	C1294.753296,472.711853 1279.039307,472.711853 1262.942139,472.711853 
	C1262.871704,479.782227 1266.076050,484.374878 1271.581177,487.086151 
	C1281.161011,491.804108 1289.622314,489.394318 1297.045654,481.676605 
	C1300.453979,484.140289 1303.745239,486.519287 1307.041748,488.902100 
	C1297.176880,502.208893 1278.519653,506.000397 1264.085083,497.821136 
	C1250.334595,490.029541 1244.316162,471.981537 1250.475708,457.009186 
	C1256.776123,441.693909 1273.009399,433.536224 1288.883667,438.261261 
	C1299.711426,441.484161 1306.666870,448.906128 1309.547974,460.414062 
M1271.554199,463.235138 
	C1279.591919,463.235138 1287.629639,463.235138 1295.784668,463.235138 
	C1293.801880,453.336395 1287.382202,448.767395 1277.623413,449.756195 
	C1270.143188,450.514160 1264.228027,456.246826 1264.147217,463.236969 
	C1266.290894,463.236969 1268.431641,463.236969 1271.554199,463.235138 
z"/>
<path fill="#F4F5F8" opacity="1.000000" stroke="none" 
	d="
M790.667480,495.639709 
	C778.442932,503.902710 764.079895,504.154968 752.375122,496.520203 
	C741.567017,489.470306 736.295898,476.335876 738.890747,462.920135 
	C742.134399,446.150299 757.843933,434.812531 774.454834,437.253021 
	C791.229919,439.717651 802.269836,454.629578 800.310913,472.817657 
	C784.671326,472.817657 768.958862,472.817657 753.007996,472.817657 
	C753.288635,480.042450 756.470276,484.794189 762.439392,487.442383 
	C772.004395,491.685760 780.271118,489.110413 787.558533,481.835419 
	C790.780579,484.189178 793.944946,486.500763 797.638000,489.198578 
	C795.240479,491.433136 793.098083,493.429871 790.667480,495.639709 
M763.521240,463.170990 
	C770.924744,463.170990 778.328186,463.170990 785.823120,463.170990 
	C784.174438,453.962891 778.048035,449.320679 769.148865,449.565704 
	C761.365234,449.779999 753.456787,456.571686 754.123474,463.172333 
	C756.910767,463.172333 759.719788,463.172333 763.521240,463.170990 
z"/>
<path fill="#F4F5F8" opacity="1.000000" stroke="none" 
	d="
M976.964905,460.000000 
	C976.965088,444.875092 976.965088,430.250214 976.965088,415.296875 
	C994.324341,415.296875 1011.355774,415.296875 1028.662964,415.296875 
	C1028.662964,419.872070 1028.662964,424.299988 1028.662964,429.163818 
	C1016.556702,429.163818 1004.465698,429.163818 992.173584,429.163818 
	C992.173584,436.366028 992.173584,443.136505 992.173584,450.550995 
	C1003.294128,450.550995 1014.326477,450.550995 1025.643677,450.550995 
	C1025.643677,455.605743 1025.643677,460.021301 1025.643677,465.051575 
	C1014.538879,465.051575 1003.500366,465.051575 991.991455,465.051575 
	C991.991455,477.219086 991.991455,488.788452 991.991455,500.628754 
	C986.927734,500.628754 982.335632,500.628754 976.964722,500.628754 
	C976.964722,487.291779 976.964722,473.895905 976.964905,460.000000 
z"/>
<path fill="#F4F5F8" opacity="1.000000" stroke="none" 
	d="
M635.456177,499.552673 
	C622.224426,504.180817 610.334167,502.438232 600.328552,492.995819 
	C590.774597,483.979675 588.076111,472.586273 591.539246,460.033783 
	C595.423401,445.954681 608.081238,436.875549 622.902405,436.942322 
	C637.911926,437.009949 650.080750,446.153259 654.023071,460.325439 
	C657.982666,474.559692 652.273865,489.300964 639.718506,497.194641 
	C638.454407,497.989380 637.103333,498.645752 635.456177,499.552673 
M606.703003,460.508148 
	C601.369629,473.209412 607.826965,486.368134 620.239807,488.093201 
	C629.176880,489.335205 637.409790,483.975922 640.102051,475.163544 
	C642.831543,466.229736 638.699829,456.293732 630.608765,452.333435 
	C621.964905,448.102570 613.133850,450.908478 606.703003,460.508148 
z"/>
<path fill="#4AC8E2" opacity="1.000000" stroke="none" 
	d="
M809.389160,466.785034 
	C805.334473,438.507050 824.856506,414.277008 851.449890,414.038147 
	C876.424500,413.813873 896.076904,434.648010 895.144043,460.359924 
	C894.266602,484.542175 872.458496,503.601471 848.062195,501.507202 
	C828.950623,499.866608 814.430908,486.944122 809.389160,466.785034 
M875.129761,484.659088 
	C880.795044,479.452545 884.544739,473.190338 886.272095,465.614471 
	C889.552673,451.226227 883.356873,436.207153 870.358765,427.620819 
	C858.789124,419.978149 842.982056,420.435516 831.921875,428.732941 
	C814.929504,441.480743 811.289368,463.967621 824.335449,480.330872 
	C836.704468,495.844971 859.067810,498.367310 875.129761,484.659088 
z"/>
<path fill="#4C42AE" opacity="1.000000" stroke="none" 
	d="
M443.718201,522.244568 
	C439.224396,517.884155 434.619629,513.631409 430.261078,509.139709 
	C422.454681,501.094910 414.796478,492.906372 407.274841,484.303345 
	C409.825104,481.563416 412.615692,479.603119 414.443451,476.973572 
	C419.230743,470.086182 423.597748,462.906647 428.132263,455.843567 
	C438.868774,467.265228 449.609070,478.683350 460.336578,490.113403 
	C461.577332,491.435394 462.747131,492.823975 464.009338,494.907501 
	C464.751282,497.359344 465.193848,499.235962 466.163971,500.781372 
	C468.477234,504.466217 471.039642,507.994690 473.216309,511.170410 
	C464.680237,520.316162 453.895752,520.410767 443.718201,522.244568 
z"/>
<path fill="#F4F5F8" opacity="1.000000" stroke="none" 
	d="
M1158.286987,481.039490 
	C1161.393677,487.304993 1166.456421,490.043060 1172.118896,488.827850 
	C1177.855347,487.596710 1181.906128,482.470520 1182.046265,475.504456 
	C1182.250366,465.349518 1182.118896,455.187866 1182.129639,445.029053 
	C1182.131592,443.206329 1182.129883,441.383575 1182.129883,439.196167 
	C1186.931519,439.196167 1191.466309,439.196167 1196.138184,439.196167 
	C1196.138184,459.663361 1196.138184,480.062103 1196.138184,500.645691 
	C1191.603516,500.645691 1187.353271,500.645691 1182.848633,500.645691 
	C1182.617554,498.362762 1182.407227,496.285248 1182.306396,495.289124 
	C1177.421143,497.464996 1172.630737,500.837952 1167.432739,501.672577 
	C1153.914795,503.843140 1143.634399,494.237122 1143.299561,479.658661 
	C1142.994019,466.355713 1143.234741,453.040222 1143.234741,439.316650 
	C1147.878784,439.316650 1152.409790,439.316650 1158.128662,439.316650 
	C1158.128662,453.085480 1158.128662,466.865753 1158.286987,481.039490 
z"/>
<path fill="#5361D9" opacity="1.000000" stroke="none" 
	d="
M336.926453,520.058472 
	C336.361633,517.974915 335.811707,515.886230 335.184448,513.503967 
	C337.062042,507.388794 342.231049,503.929016 348.324493,501.294464 
	C352.304718,499.573578 355.923737,496.951782 359.976837,495.486694 
	C362.921112,494.422455 366.311066,494.590973 369.846619,494.054688 
	C375.372833,493.428040 380.558380,492.569244 385.735352,492.618225 
	C389.316040,492.652100 392.884827,493.939178 396.735168,495.246277 
	C397.479309,496.138031 397.947266,496.449677 398.415222,496.761353 
	C398.811829,496.982269 399.208466,497.203156 399.851562,497.648254 
	C400.098083,497.872406 400.082764,497.907532 400.082764,497.907532 
	C400.254913,498.091187 400.427094,498.274872 400.776245,499.148621 
	C401.938812,500.573456 402.924347,501.308289 403.909912,502.043091 
	C404.177277,502.239838 404.444611,502.436584 404.824280,503.242371 
	C405.491821,505.549957 405.553589,507.763123 406.691376,508.853973 
	C410.690399,512.687805 409.899658,517.829590 408.202118,521.240784 
	C406.662567,524.334351 402.044281,526.950317 398.363831,527.690491 
	C391.954498,528.979370 385.218903,528.611511 378.628174,529.057556 
	C377.058472,529.163818 375.520660,529.741455 373.968201,530.102295 
	C372.591003,530.127502 371.213837,530.152710 369.138245,529.831543 
	C366.800812,529.462952 365.161804,529.440796 363.522797,529.418640 
	C362.917267,529.379272 362.311768,529.339905 361.154999,529.126587 
	C360.421906,528.959473 360.240082,528.966248 360.058258,528.972961 
	C355.116394,527.505310 350.174530,526.037598 344.895935,524.356812 
	C344.559174,524.143677 344.596466,524.067871 344.596466,524.067871 
	C344.189484,523.907471 343.782501,523.747070 343.009491,523.026428 
	C340.747620,521.668823 338.851776,520.871460 336.955933,520.074036 
	C336.955933,520.074036 336.941345,520.053406 336.926453,520.058472 
z"/>
<path fill="#F4F5F8" opacity="1.000000" stroke="none" 
	d="
M1088.018066,476.000000 
	C1088.018066,484.451477 1088.018066,492.402924 1088.018066,500.623962 
	C1083.142578,500.623962 1078.745972,500.623962 1074.177856,500.623962 
	C1074.041138,498.594116 1073.921021,496.811798 1073.763916,494.481689 
	C1072.640991,495.244507 1071.714966,495.743042 1070.943115,496.418060 
	C1063.992676,502.497955 1056.057495,503.720398 1047.708008,500.329071 
	C1038.993774,496.789612 1035.379272,489.350800 1035.179810,480.437622 
	C1034.874634,466.798126 1035.099609,453.146759 1035.099609,439.160217 
	C1039.772339,439.160217 1044.324341,439.160217 1049.150513,439.160217 
	C1049.150513,451.453217 1048.993164,463.597015 1049.198608,475.734711 
	C1049.371826,485.964417 1056.946045,491.315063 1065.967285,487.922455 
	C1070.803955,486.103577 1073.809204,480.947021 1073.839722,474.097015 
	C1073.891357,462.490936 1073.853882,450.884491 1073.853882,439.065918 
	C1078.661377,439.065918 1083.080811,439.065918 1088.017944,439.065918 
	C1088.017944,451.311523 1088.017944,463.405762 1088.018066,476.000000 
z"/>
<path fill="#5361D9" opacity="1.000000" stroke="none" 
	d="
M428.093567,455.467590 
	C423.597748,462.906647 419.230743,470.086182 414.443451,476.973572 
	C412.615692,479.603119 409.825104,481.563416 407.139771,483.995300 
	C399.583435,476.669586 392.360657,469.177277 385.035004,461.009033 
	C383.632660,458.910156 382.333191,457.487244 381.033691,456.064301 
	C380.938354,455.920471 380.843048,455.776672 380.994690,455.174408 
	C381.180695,449.295013 382.946320,445.157349 388.052429,442.275208 
	C391.966705,440.065765 395.208191,436.681702 398.822540,433.916321 
	C400.641327,432.524750 402.490509,430.576477 404.557709,430.218628 
	C410.573456,429.177216 413.630157,425.324677 415.939301,420.243805 
	C416.744690,418.471832 417.859436,416.708099 419.237762,415.352203 
	C424.735199,409.944550 426.823303,402.887970 429.058716,395.876068 
	C429.161682,395.682892 429.264679,395.489716 429.989716,395.112671 
	C432.012573,393.999390 433.413422,393.069946 434.854218,392.548035 
	C434.246979,395.638214 433.878357,398.428528 432.892395,400.980286 
	C431.058655,405.726013 428.335052,410.188171 427.010010,415.048676 
	C426.144836,418.222229 427.091949,421.889832 427.227264,425.336151 
	C427.727905,425.356689 428.228516,425.377258 428.729156,425.397797 
	C424.776947,430.900116 417.607605,434.428406 417.619354,442.842010 
	C426.903198,442.281403 425.404053,449.178558 425.795227,455.158417 
	C426.797394,453.678375 427.340576,452.876221 427.883759,452.074066 
	C427.940796,453.079926 427.997803,454.085785 428.093567,455.467590 
z"/>
<path fill="#F4F5F8" opacity="1.000000" stroke="none" 
	d="
M1114.182495,420.292572 
	C1115.963867,419.767181 1117.356934,419.355682 1119.424927,418.744781 
	C1119.424927,425.577545 1119.424927,431.948273 1119.424927,438.728302 
	C1124.603271,438.728302 1129.198975,438.728302 1134.102783,438.728302 
	C1134.102783,443.363068 1134.102783,447.563873 1134.102783,452.218872 
	C1129.267334,452.218872 1124.681519,452.218872 1119.830933,452.218872 
	C1119.830933,462.748383 1119.636719,472.835388 1119.930664,482.908173 
	C1120.041626,486.704163 1123.240112,488.013794 1126.681152,488.196320 
	C1129.148682,488.327240 1131.628784,488.221771 1134.434082,488.221771 
	C1134.434082,492.110870 1134.434082,496.324707 1134.434082,501.793823 
	C1129.781616,501.793823 1125.159302,502.193329 1120.632324,501.706696 
	C1112.419556,500.823883 1106.511597,495.088776 1105.797852,486.693817 
	C1105.066772,478.096375 1105.288452,469.417053 1105.121826,460.773041 
	C1105.070801,458.123657 1105.113892,455.472473 1105.113892,452.432434 
	C1102.123291,452.279694 1099.382446,452.139679 1096.355469,451.985077 
	C1096.355469,447.743896 1096.355469,443.658447 1096.355469,439.150696 
	C1099.153320,438.980713 1102.032471,438.805786 1105.355957,438.603882 
	C1105.355957,435.096161 1105.568604,431.774963 1105.301636,428.492767 
	C1104.974731,424.475220 1105.706543,421.646118 1110.507324,421.514343 
	C1111.612183,421.484039 1112.699097,420.793274 1114.182495,420.292572 
z"/>
<path fill="#4AC8E2" opacity="1.000000" stroke="none" 
	d="
M909.662109,496.614502 
	C909.662842,477.197845 909.662842,458.237640 909.662842,439.050110 
	C912.519409,439.050110 914.809387,439.050110 917.430237,439.050110 
	C917.765747,440.877930 918.109314,442.749634 918.619080,445.526672 
	C920.306213,444.401306 921.639771,443.678925 922.779053,442.724579 
	C929.883484,436.773499 937.906372,435.969086 946.234131,439.128510 
	C954.234314,442.163666 959.306152,448.519073 959.708984,456.864227 
	C960.405579,471.296875 959.902222,485.787445 959.902222,500.561737 
	C957.219788,500.561737 954.791870,500.561737 951.781799,500.561737 
	C951.781799,492.645935 951.789185,484.864136 951.779236,477.082336 
	C951.772339,471.750580 951.963623,466.406372 951.664856,461.090240 
	C951.288818,454.397461 948.284485,449.299622 941.581970,447.056610 
	C934.757996,444.772949 926.913635,446.399597 923.092957,452.056549 
	C920.525208,455.858429 918.523071,460.690796 918.174011,465.209290 
	C917.418884,474.984192 917.888062,484.853790 917.858582,494.684631 
	C917.853210,496.481415 917.857849,498.278168 917.857849,500.851562 
	C914.588562,499.597168 909.789673,504.326843 909.662109,496.614502 
z"/>
<path fill="#F4F5F8" opacity="1.000000" stroke="none" 
	d="
M1210.813965,475.999084 
	C1210.813965,463.519623 1210.813965,451.540161 1210.813965,439.216248 
	C1215.491333,439.216248 1220.032471,439.216248 1224.919189,439.216248 
	C1224.919189,441.600830 1224.919189,443.845825 1224.919189,447.217194 
	C1230.410522,440.676819 1236.171265,436.624847 1244.440063,437.329163 
	C1244.440063,442.521301 1244.440063,447.581482 1244.440063,452.787445 
	C1243.092529,452.898865 1242.118042,453.000549 1241.140869,453.056946 
	C1231.013550,453.641937 1225.280640,459.416229 1225.109497,469.637604 
	C1224.939697,479.778015 1225.072388,489.923492 1225.072388,500.449341 
	C1220.348755,500.449341 1215.806152,500.449341 1210.813965,500.449341 
	C1210.813965,492.423126 1210.813965,484.461121 1210.813965,475.999084 
z"/>
<path fill="#4C42AE" opacity="1.000000" stroke="none" 
	d="
M427.965698,451.707886 
	C427.340576,452.876221 426.797394,453.678375 425.795227,455.158417 
	C425.404053,449.178558 426.903198,442.281403 417.619354,442.842010 
	C417.607605,434.428406 424.776947,430.900116 428.729156,425.397797 
	C428.228516,425.377258 427.727905,425.356689 427.227264,425.336151 
	C427.091949,421.889832 426.144836,418.222229 427.010010,415.048676 
	C428.335052,410.188171 431.058655,405.726013 432.892395,400.980286 
	C433.878357,398.428528 434.246979,395.638214 435.152405,392.497803 
	C435.610565,392.035370 435.810486,392.030670 436.062500,392.135162 
	C436.114624,392.244385 436.408417,392.266357 436.408417,392.266357 
	C436.408417,392.266357 436.025055,392.010803 436.127563,391.676758 
	C436.484955,390.217041 436.739868,389.091400 436.994812,387.965729 
	C436.994812,387.965729 437.004974,388.005157 437.251801,387.942017 
	C437.953094,387.241150 438.407593,386.603455 438.862091,385.965759 
	C441.024811,383.685944 443.187561,381.406158 445.682007,379.298096 
	C448.039093,386.176422 445.330841,392.219452 442.803070,398.022186 
	C441.147766,401.822144 441.859558,403.845276 445.114777,405.606110 
	C449.111053,402.338806 453.025146,399.138702 456.971802,395.971497 
	C457.004333,396.004364 457.069672,396.069916 457.002472,396.462250 
	C455.461884,400.655945 455.172760,404.161560 458.569885,407.333527 
	C459.316589,408.030762 459.579285,410.287659 459.019653,411.140320 
	C457.555420,413.371338 455.277802,415.066040 453.795685,417.288788 
	C452.993713,418.491516 453.156097,420.337341 452.883484,421.893066 
	C446.554688,428.561157 440.069611,435.090698 433.974487,441.965942 
	C431.553711,444.696533 429.997437,448.193604 427.965698,451.707886 
z"/>
<path fill="#2D3E84" opacity="1.000000" stroke="none" 
	d="
M456.939209,395.938599 
	C453.025146,399.138702 449.111053,402.338806 445.114777,405.606110 
	C441.859558,403.845276 441.147766,401.822144 442.803070,398.022186 
	C445.330841,392.219452 448.039093,386.176422 445.970337,379.107269 
	C448.166016,375.157776 451.337250,373.768921 455.600861,373.910858 
	C462.922974,374.154663 470.259430,374.079285 477.587830,373.981812 
	C482.510193,373.916382 485.794708,376.204498 487.860229,380.487549 
	C489.877502,384.670593 487.343781,387.454315 484.723328,390.117004 
	C474.344727,400.662994 463.931915,411.175385 453.207642,421.796631 
	C453.156097,420.337341 452.993713,418.491516 453.795685,417.288788 
	C455.277802,415.066040 457.555420,413.371338 459.019653,411.140320 
	C459.579285,410.287659 459.316589,408.030762 458.569885,407.333527 
	C455.172760,404.161560 455.461884,400.655945 457.337769,396.404907 
	C461.515015,392.445282 465.289795,388.935394 469.064575,385.425476 
	C468.480042,384.875732 467.895538,384.325989 467.311035,383.776245 
	C463.853760,387.830353 460.396484,391.884460 456.939209,395.938599 
M473.638702,379.927795 
	C474.327942,379.318909 475.017181,378.710052 475.706421,378.101196 
	C475.339264,377.809540 474.972076,377.517914 474.604919,377.226288 
	C474.067291,378.148895 473.529694,379.071503 472.744781,380.104553 
	C472.831970,380.072479 472.919189,380.040405 473.638702,379.927795 
M470.568207,382.515137 
	C470.568207,382.515137 470.481079,382.562775 470.568207,382.515137 
z"/>
<path fill="#2D3E84" opacity="1.000000" stroke="none" 
	d="
M443.820740,522.564026 
	C453.895752,520.410767 464.680237,520.316162 473.216309,511.170410 
	C471.039642,507.994690 468.477234,504.466217 466.163971,500.781372 
	C465.193848,499.235962 464.751282,497.359344 464.122925,495.222778 
	C469.427917,500.066925 474.683044,505.317413 479.927795,510.578278 
	C482.029602,512.686523 484.215973,514.723450 486.175934,516.957642 
	C490.587708,521.986450 489.154785,528.878113 482.725769,529.632385 
	C472.933838,530.781189 462.885712,530.788391 453.055115,529.971619 
	C449.837067,529.704285 446.957581,525.362183 443.820740,522.564026 
z"/>
<path fill="#4085D6" opacity="1.000000" stroke="none" 
	d="
M428.770386,395.927795 
	C426.823303,402.887970 424.735199,409.944550 419.237762,415.352203 
	C417.859436,416.708099 416.744690,418.471832 415.939301,420.243805 
	C413.630157,425.324677 410.573456,429.177216 404.557709,430.218628 
	C402.490509,430.576477 400.641327,432.524750 398.822540,433.916321 
	C395.208191,436.681702 391.966705,440.065765 388.052429,442.275208 
	C382.946320,445.157349 381.180695,449.295013 380.965515,454.917297 
	C377.855530,448.534882 380.915527,443.656860 385.342224,439.214172 
	C399.712067,424.792572 414.100647,410.389618 428.770386,395.927795 
z"/>
<path fill="#4C42AE" opacity="1.000000" stroke="none" 
	d="
M374.324829,530.302002 
	C375.520660,529.741455 377.058472,529.163818 378.628174,529.057556 
	C385.218903,528.611511 391.954498,528.979370 398.363831,527.690491 
	C402.044281,526.950317 406.662567,524.334351 408.202118,521.240784 
	C409.899658,517.829590 410.690399,512.687805 406.691376,508.853973 
	C405.553589,507.763123 405.491821,505.549957 404.950684,503.459167 
	C410.993347,508.985291 417.214233,514.724731 422.963409,520.903198 
	C425.550293,523.683289 423.686432,528.598755 420.057007,529.906860 
	C418.823486,530.351379 417.452057,530.618286 416.143585,530.618408 
	C402.322876,530.619934 388.502136,530.551086 374.324829,530.302002 
z"/>
<path fill="#4085D6" opacity="1.000000" stroke="none" 
	d="
M436.685120,388.086975 
	C436.739868,389.091400 436.484955,390.217041 436.115021,391.671631 
	C436.000000,392.000549 436.010376,392.025940 436.010376,392.025940 
	C435.810486,392.030670 435.610565,392.035370 435.112427,392.090302 
	C433.413422,393.069946 432.012573,393.999390 430.282379,394.963684 
	C432.093811,392.735138 434.234619,390.471680 436.685120,388.086975 
z"/>
<path fill="#4085D6" opacity="1.000000" stroke="none" 
	d="
M381.074707,456.390350 
	C382.333191,457.487244 383.632660,458.910156 384.924744,460.689148 
	C383.650146,459.602264 382.382965,458.159332 381.074707,456.390350 
z"/>
<path fill="#4085D6" opacity="1.000000" stroke="none" 
	d="
M337.129456,520.361694 
	C338.851776,520.871460 340.747620,521.668823 342.786194,522.783325 
	C341.053589,522.283386 339.178253,521.466309 337.129456,520.361694 
z"/>
<path fill="#4C42AE" opacity="1.000000" stroke="none" 
	d="
M363.778809,529.636536 
	C365.161804,529.440796 366.800812,529.462952 368.729492,529.766602 
	C367.357697,529.983582 365.696289,529.919006 363.778809,529.636536 
z"/>
<path fill="#4C42AE" opacity="1.000000" stroke="none" 
	d="
M403.874084,501.723206 
	C402.924347,501.308289 401.938812,500.573456 400.954956,499.481323 
	C401.917206,499.883759 402.877747,500.643555 403.874084,501.723206 
z"/>
<path fill="#4085D6" opacity="1.000000" stroke="none" 
	d="
M438.628479,386.007050 
	C438.407593,386.603455 437.953094,387.241150 437.231812,387.938141 
	C437.441620,387.347748 437.918243,386.698059 438.628479,386.007050 
z"/>
<path fill="#4C42AE" opacity="1.000000" stroke="none" 
	d="
M398.323608,496.485596 
	C397.947266,496.449677 397.479309,496.138031 396.956909,495.528137 
	C397.345612,495.556580 397.788788,495.883240 398.323608,496.485596 
z"/>
<path fill="#4AC8E2" opacity="1.000000" stroke="none" 
	d="
M337.394287,467.581726 
	C337.116577,467.436890 336.787720,466.983978 336.637512,466.338501 
	C336.991821,466.521881 337.167511,466.897766 337.394287,467.581726 
z"/>
<path fill="#4C42AE" opacity="1.000000" stroke="none" 
	d="
M400.181213,497.883545 
	C400.082764,497.907532 400.098083,497.872406 400.091797,497.892365 
	C400.085480,497.912323 400.279694,497.859528 400.181213,497.883545 
z"/>
<path fill="#4085D6" opacity="1.000000" stroke="none" 
	d="
M344.577393,524.119995 
	C344.596466,524.067871 344.559174,524.143677 344.532471,524.136963 
	C344.505768,524.130188 344.558350,524.172180 344.577393,524.119995 
z"/>
<path fill="#4C42AE" opacity="1.000000" stroke="none" 
	d="
M360.157471,529.095825 
	C360.240082,528.966248 360.421906,528.959473 360.866089,529.029602 
	C361.128448,529.106567 360.717590,529.304810 360.717590,529.304810 
	C360.717590,529.304810 360.256714,529.218689 360.157471,529.095825 
z"/>
<path fill="#4085D6" opacity="1.000000" stroke="none" 
	d="
M334.553650,436.563843 
	C334.488434,436.607605 334.618896,436.520081 334.553650,436.563843 
z"/>
<path fill="#030422" opacity="1.000000" stroke="none" 
	d="
M676.746094,472.231018 
	C676.058899,462.689819 679.888733,455.463470 687.162109,452.091888 
	C693.380859,449.209229 702.000732,450.656830 707.134888,455.446198 
	C712.826233,460.755280 714.800171,469.205383 712.047241,476.474609 
	C709.176208,484.055511 701.846130,488.756622 693.680420,488.254272 
	C685.271362,487.736938 678.908203,481.848694 676.746094,472.231018 
z"/>
<path fill="#4AC8E2" opacity="1.000000" stroke="none" 
	d="
M310.041565,456.039673 
	C309.444916,456.906311 308.848267,457.772949 308.251617,458.639587 
	C307.960175,458.386200 307.668732,458.132843 307.377289,457.879456 
	C308.025696,457.261230 308.674103,456.643005 309.659424,456.010315 
	C309.996368,455.995819 310.041565,456.039673 310.041565,456.039673 
z"/>
<path fill="#4AC8E2" opacity="1.000000" stroke="none" 
	d="
M333.040314,472.028015 
	C332.252777,472.679535 331.465271,473.331085 330.343903,473.996704 
	C330.010040,474.010773 329.975342,473.985077 329.975342,473.985107 
	C330.757416,473.326508 331.539490,472.667877 332.658875,471.999512 
	C332.996216,471.989746 333.040314,472.028015 333.040314,472.028015 
z"/>
<path fill="#4AC8E2" opacity="1.000000" stroke="none" 
	d="
M309.974152,455.973511 
	C310.407501,455.316956 310.863068,454.682678 311.631927,453.997192 
	C311.945221,453.945953 311.995880,453.996246 312.021179,454.022156 
	C311.583374,454.672333 311.120300,455.296570 310.349426,455.980255 
	C310.041565,456.039673 309.996368,455.995819 309.974152,455.973511 
z"/>
<path fill="#4AC8E2" opacity="1.000000" stroke="none" 
	d="
M330.025757,474.025818 
	C329.902740,474.446533 329.764038,474.852173 329.625305,475.257812 
	C329.612640,474.917389 329.600006,474.576996 329.781372,474.110840 
	C329.975342,473.985077 330.010040,474.010773 330.025757,474.025818 
z"/>
<path fill="#4AC8E2" opacity="1.000000" stroke="none" 
	d="
M305.598511,460.256226 
	C305.449585,460.138153 305.429596,459.935516 305.409576,459.732910 
	C305.515533,459.879181 305.621490,460.025421 305.598511,460.256226 
z"/>
<path fill="#4AC8E2" opacity="1.000000" stroke="none" 
	d="
M302.766205,462.578796 
	C302.821381,462.399170 302.951324,462.338928 303.081268,462.278656 
	C303.001190,462.418488 302.921082,462.558289 302.766205,462.578796 
z"/>
<path fill="#4AC8E2" opacity="1.000000" stroke="none" 
	d="
M335.006836,469.769226 
	C334.895996,469.597809 334.952820,469.420898 335.009644,469.243988 
	C335.064606,469.417236 335.119568,469.590454 335.006836,469.769226 
z"/>
<path fill="#4AC8E2" opacity="1.000000" stroke="none" 
	d="
M325.008911,479.704865 
	C324.962067,479.705536 325.055756,479.704163 325.008911,479.704865 
z"/>
<path fill="#4AC8E2" opacity="1.000000" stroke="none" 
	d="
M326.740723,477.598694 
	C326.863525,477.441559 327.069885,477.417969 327.276245,477.394409 
	C327.125549,477.507019 326.974884,477.619629 326.740723,477.598694 
z"/>
<path fill="#4AC8E2" opacity="1.000000" stroke="none" 
	d="
M332.977112,471.967651 
	C333.072510,471.928619 333.186951,471.911713 333.170868,471.961426 
	C333.040314,472.028015 332.996216,471.989746 332.977112,471.967651 
z"/>
<path fill="#030422" opacity="1.000000" stroke="none" 
	d="
M1271.063232,463.236053 
	C1268.431641,463.236969 1266.290894,463.236969 1264.147217,463.236969 
	C1264.228027,456.246826 1270.143188,450.514160 1277.623413,449.756195 
	C1287.382202,448.767395 1293.801880,453.336395 1295.784668,463.235138 
	C1287.629639,463.235138 1279.591919,463.235138 1271.063232,463.236053 
z"/>
<path fill="#030422" opacity="1.000000" stroke="none" 
	d="
M763.025024,463.171661 
	C759.719788,463.172333 756.910767,463.172333 754.123474,463.172333 
	C753.456787,456.571686 761.365234,449.779999 769.148865,449.565704 
	C778.048035,449.320679 784.174438,453.962891 785.823120,463.170990 
	C778.328186,463.170990 770.924744,463.170990 763.025024,463.171661 
z"/>
<path fill="#030422" opacity="1.000000" stroke="none" 
	d="
M606.874268,460.164246 
	C613.133850,450.908478 621.964905,448.102570 630.608765,452.333435 
	C638.699829,456.293732 642.831543,466.229736 640.102051,475.163544 
	C637.409790,483.975922 629.176880,489.335205 620.239807,488.093201 
	C607.826965,486.368134 601.369629,473.209412 606.874268,460.164246 
z"/>
<path fill="#030422" opacity="1.000000" stroke="none" 
	d="
M874.855103,484.886414 
	C859.067810,498.367310 836.704468,495.844971 824.335449,480.330872 
	C811.289368,463.967621 814.929504,441.480743 831.921875,428.732941 
	C842.982056,420.435516 858.789124,419.978149 870.358765,427.620819 
	C883.356873,436.207153 889.552673,451.226227 886.272095,465.614471 
	C884.544739,473.190338 880.795044,479.452545 874.855103,484.886414 
z"/>
<path fill="#5361D9" opacity="1.000000" stroke="none" 
	d="
M436.012512,392.005676 
	C436.025055,392.010803 436.408417,392.266357 436.408417,392.266357 
	C436.408417,392.266357 436.114624,392.244385 436.062500,392.135162 
	C436.010376,392.025940 436.000000,392.000549 436.012512,392.005676 
z"/>
<path fill="#4C42AE" opacity="1.000000" stroke="none" 
	d="
M456.971771,395.971466 
	C460.396484,391.884460 463.853760,387.830353 467.311035,383.776245 
	C467.895538,384.325989 468.480042,384.875732 469.064575,385.425476 
	C465.289795,388.935394 461.515015,392.445282 457.404968,396.012573 
	C457.069672,396.069916 457.004333,396.004364 456.971771,395.971466 
z"/>
<path fill="#4C42AE" opacity="1.000000" stroke="none" 
	d="
M472.992065,379.994110 
	C473.529694,379.071503 474.067291,378.148895 474.604919,377.226288 
	C474.972076,377.517914 475.339264,377.809540 475.706421,378.101196 
	C475.017181,378.710052 474.327942,379.318909 473.319336,379.963898 
	C473.000000,380.000000 472.992065,379.994110 472.992065,379.994110 
z"/>
<path fill="#4C42AE" opacity="1.000000" stroke="none" 
	d="
M470.524658,382.538940 
	C470.481079,382.562775 470.568207,382.515137 470.524658,382.538940 
z"/>
<path fill="#4C42AE" opacity="1.000000" stroke="none" 
	d="
M473.003174,380.004181 
	C472.919189,380.040405 472.831970,380.072479 472.868408,380.049316 
	C472.992065,379.994110 473.000000,380.000000 473.003174,380.004181 
z"/>
</svg>